<svg width="96" height="96" viewBox="0 0 96 96" fill="none" xmlns="http://www.w3.org/2000/svg">
<rect width="96" height="96" fill="#377FFF" fill-opacity="0.63"/>
<path fill-rule="evenodd" clip-rule="evenodd" d="M37 5V87.9795C38.5391 88.1267 39.0328 87.4652 39.7487 86.5062C40.674 85.2668 41.9703 83.5302 46.3742 82.3996V52.8797C47.0126 52.2675 47.6263 51.6754 48.2179 51.1045C54.4904 45.0522 58.2917 41.3843 63 41.3945V5H37ZM52.7415 42.0798C50.4072 42.4201 49.1754 42.924 46.3742 46.2198V6.61999H52.7415V42.0798Z" fill="white" stroke="black"/>
<path d="M44.5602 92L37 88.1857C40.3276 87.5494 39.9609 83.2948 46.2613 82.4626L45.8833 52.3699C52.5618 46.4748 55.9343 41.6835 63.0828 40.5543V40.1851V4L64 27.4465L63.9696 55.3238L50.7974 64.3484V87.251L44.5602 92Z" fill="black"/>
<path d="M48.6249 18.7694V42.9544L46.0723 45.7236V5.47694H52.6875V18.7694H48.6249Z" fill="black"/>
<path fill-rule="evenodd" clip-rule="evenodd" d="M37 5V87.9795C38.5391 88.1267 39.0328 87.4652 39.7487 86.5062C40.674 85.2668 41.9703 83.5302 46.3742 82.3996V52.8797C47.0126 52.2675 47.6263 51.6754 48.2179 51.1045C54.4904 45.0522 58.2917 41.3843 63 41.3945V5H37ZM52.7415 42.0798C50.4072 42.4201 49.1754 42.924 46.3742 46.2198V6.61999H52.7415V42.0798Z" fill="white" stroke="black"/>
</svg>
